<svg width="20" height="15" viewBox="0 0 20 15" fill="none" xmlns="http://www.w3.org/2000/svg">
<path d="M20.0003 10.7476C19.9632 10.3609 19.9199 9.97476 19.8891 9.58754C19.7931 8.38728 19.7049 7.18702 19.6057 5.98676C19.5782 5.53931 19.3844 5.11831 19.0625 4.80633C18.0999 3.88195 17.1313 2.96402 16.1568 2.05251C15.8179 1.74473 15.4152 1.51558 14.9774 1.38141C13.784 0.995239 12.5952 0.594979 11.3918 0.242206C10.9195 0.0991547 10.4297 0.0218891 9.93634 0.012591C6.85115 -0.00723937 3.76543 0.00215384 0.67972 0.0026757C0.223099 0.0026757 0.00131226 0.228638 0.00131226 0.687346C0.00131226 2.73162 0.00131226 4.77554 0.00131226 6.81911C0.00131226 7.26895 0.219968 7.50117 0.663021 7.50431C1.14208 7.50744 1.52251 7.69478 1.78814 8.09348C2.08037 8.53183 2.35852 8.98063 2.64919 9.41846C3.36517 10.5018 4.33217 11.3217 5.39414 12.0481C6.45611 12.7745 7.49251 13.5197 8.54091 14.2571C8.93595 14.5342 9.09251 14.5363 9.4959 14.2696C9.85775 14.0359 10.1712 13.7347 10.4191 13.3825C10.9122 12.6727 10.9795 11.9124 10.6497 11.1228C10.5819 10.96 10.6168 10.8875 10.7343 10.7852C11.2947 10.2988 11.8479 9.80463 12.4042 9.312C12.6278 9.12111 12.8066 8.88324 12.9277 8.61533C13.0489 8.34743 13.1094 8.05609 13.105 7.7621C13.1076 6.94801 13.105 6.13444 13.105 5.32088V5.08604C13.4504 5.08279 13.7848 5.20689 14.0444 5.43464C14.5104 5.85212 14.9665 6.279 15.4054 6.72309C15.767 7.08839 15.8594 7.56849 15.9053 8.0653C15.9669 8.73223 16.0394 9.39863 16.1339 10.0619C16.2064 10.5502 16.4631 10.9921 16.8513 11.297C17.2395 11.6018 17.7298 11.7464 18.2213 11.701C18.5777 11.6692 18.9336 11.6254 19.2911 11.6087C19.6298 11.593 19.8771 11.4641 20.0034 11.139L20.0003 10.7476ZM18.7838 10.471C18.5652 10.4919 18.3664 10.5097 18.1654 10.5295C17.6958 10.5765 17.3232 10.2785 17.2705 9.80672C17.1875 9.06986 17.1139 8.33196 17.0252 7.59615C16.9509 6.91677 16.6416 6.28472 16.1506 5.80933C15.7461 5.41272 15.3365 5.02133 14.9179 4.63986C14.4034 4.17019 13.7928 3.91657 13.0946 3.90926C12.0144 3.90091 10.9336 3.89778 9.85285 3.90926C8.74391 3.92335 7.87346 4.40555 7.26185 5.32766C6.53543 6.42355 6.57613 7.94475 7.40744 9.08917C7.77274 9.59537 8.25232 10.0222 8.68233 10.4825C8.89107 10.7059 9.12277 10.9094 9.31377 11.1468C9.8518 11.8153 9.79231 12.4635 9.16765 13.0464C9.06954 13.1377 9.00431 13.1508 8.88846 13.0667C7.76961 12.272 6.6445 11.486 5.52303 10.6944C4.71688 10.1282 4.02863 9.41055 3.49668 8.58141C3.22949 8.16393 2.97065 7.74384 2.68207 7.34305C2.33243 6.85825 1.86798 6.52531 1.26994 6.40372C1.24131 6.39565 1.21366 6.38445 1.18748 6.37032V1.17423H1.32003C4.19701 1.17423 7.0745 1.16797 9.95148 1.18258C10.3289 1.18925 10.7034 1.25005 11.0635 1.36315C12.2509 1.72357 13.4319 2.10418 14.6064 2.50496C14.9144 2.60973 15.1983 2.7751 15.4414 2.99133C16.3692 3.83777 17.271 4.71344 18.1827 5.57711C18.3417 5.72467 18.4365 5.92871 18.4467 6.1454C18.4864 6.70326 18.5354 7.2606 18.5793 7.81846C18.6455 8.69413 18.7134 9.56928 18.7838 10.471ZM8.82793 9.00985C9.21358 8.66752 9.57887 8.34501 9.9426 8.02094C10.1675 7.82726 10.3468 7.58623 10.4676 7.31512C10.5884 7.044 10.6478 6.74952 10.6414 6.45277C10.6414 6.07008 10.6414 5.68652 10.6414 5.30209V5.09335H11.911C11.9193 5.11382 11.925 5.13519 11.9283 5.15701C11.9283 6.04782 11.9418 6.93862 11.9199 7.8289C11.9119 8.02353 11.8341 8.20877 11.7007 8.35075C11.1058 8.91279 10.4843 9.44664 9.86433 9.99615L8.82793 9.00985ZM8.15474 8.04181C7.55461 6.82903 8.23719 5.32818 9.45415 5.14136C9.45415 5.64755 9.46772 6.15323 9.44528 6.65473C9.42897 6.80423 9.36106 6.94337 9.25324 7.04821C8.90464 7.38793 8.5336 7.70261 8.15474 8.04129V8.04181Z" fill="#FF5963"/>
</svg>
