<svg width="24" height="24" viewBox="0 0 24 24" fill="none" xmlns="http://www.w3.org/2000/svg">
<path d="M19.9337 11.3627C19.7064 11.3627 19.4884 11.2724 19.3276 11.1117C19.1669 10.9509 19.0766 10.7329 19.0766 10.5056V8.08502C19.0766 4.65645 15.9086 1.91359 12.0137 1.91359C8.11886 1.91359 4.95086 4.69073 4.95086 8.08502V10.5056C4.95086 10.7329 4.86055 10.9509 4.69981 11.1117C4.53906 11.2724 4.32104 11.3627 4.09372 11.3627C3.86639 11.3627 3.64837 11.2724 3.48762 11.1117C3.32688 10.9509 3.23657 10.7329 3.23657 10.5056V8.08502C3.23657 3.72388 7.17943 0.171875 12.0137 0.171875C16.848 0.171875 20.7909 3.72388 20.7909 8.08502V10.5056C20.7918 10.6184 20.7702 10.7303 20.7275 10.8347C20.6847 10.9391 20.6216 11.0339 20.5418 11.1137C20.4621 11.1935 20.3672 11.2566 20.2628 11.2993C20.1584 11.3421 20.0465 11.3636 19.9337 11.3627Z" fill="#FF5963"/>
<path d="M17.616 19.4259C17.3887 19.4259 17.1707 19.3356 17.0099 19.1748C16.8492 19.0141 16.7589 18.7961 16.7589 18.5688V10.4293C16.766 10.2068 16.8594 9.99575 17.0194 9.84089C17.1794 9.68603 17.3934 9.5995 17.616 9.59961C20.5714 9.59961 22.9783 11.8145 22.9783 14.5299C22.9783 17.2453 20.5714 19.4259 17.616 19.4259ZM18.4732 11.3756V17.6225C19.2236 17.4982 19.9089 17.121 20.4154 16.5534C20.9218 15.9859 21.2189 15.2622 21.2572 14.5025C21.2204 13.7416 20.924 13.0162 20.4175 12.4473C19.9109 11.8783 19.2247 11.5001 18.4732 11.3756ZM6.38401 19.4259C3.42859 19.4259 1.02173 17.2179 1.02173 14.5025C1.02173 11.787 3.42859 9.59961 6.38401 9.59961C6.61134 9.59961 6.82936 9.68992 6.99011 9.85066C7.15085 10.0114 7.24116 10.2294 7.24116 10.4568V18.5688C7.24116 18.7961 7.15085 19.0141 6.99011 19.1748C6.82936 19.3356 6.61134 19.4259 6.38401 19.4259ZM5.52687 11.3756C4.77533 11.5001 4.08913 11.8783 3.58257 12.4473C3.076 13.0162 2.77965 13.7416 2.74287 14.5025C2.78117 15.2622 3.07821 15.9859 3.58465 16.5534C4.09108 17.121 4.77643 17.4982 5.52687 17.6225V11.3756Z" fill="#FF5963"/>
<path d="M17.3349 22.2174H14.496C14.2687 22.2174 14.0507 22.1271 13.8899 21.9664C13.7292 21.8056 13.6389 21.5876 13.6389 21.3603C13.6389 21.1329 13.7292 20.9149 13.8899 20.7542C14.0507 20.5934 14.2687 20.5031 14.496 20.5031H17.3349C17.7786 20.5031 18.2042 20.3269 18.5179 20.0131C18.8317 19.6993 19.008 19.2737 19.008 18.83V18.4528C19.008 18.2255 19.0983 18.0075 19.259 17.8468C19.4198 17.686 19.6378 17.5957 19.8651 17.5957C20.0925 17.5957 20.3105 17.686 20.4712 17.8468C20.632 18.0075 20.7223 18.2255 20.7223 18.4528V18.83C20.7223 19.7284 20.3654 20.59 19.7301 21.2253C19.0949 21.8605 18.2333 22.2174 17.3349 22.2174Z" fill="#FF5963"/>
<path d="M13.0285 23.8283H11.3348C10.7129 23.8283 10.1164 23.5812 9.67656 23.1414C9.23676 22.7016 8.98969 22.1051 8.98969 21.4831V21.3871C8.9915 20.7663 9.23938 20.1716 9.67898 19.7333C10.1186 19.295 10.714 19.0488 11.3348 19.0488H13.0285C13.6487 19.0488 14.2434 19.2952 14.682 19.7337C15.1205 20.1722 15.3668 20.767 15.3668 21.3871V21.4831C15.3668 22.1039 15.1207 22.6994 14.6824 23.139C14.2441 23.5786 13.6493 23.8264 13.0285 23.8283ZM11.3485 20.7631C11.1824 20.7631 11.023 20.8286 10.9049 20.9455C10.7868 21.0623 10.7195 21.221 10.7177 21.3871V21.4831C10.7177 21.6504 10.7842 21.8109 10.9025 21.9292C11.0208 22.0475 11.1812 22.114 11.3485 22.114H13.0285C13.1947 22.1122 13.3534 22.0449 13.4702 21.9268C13.587 21.8087 13.6526 21.6492 13.6525 21.4831V21.3871C13.6525 21.2216 13.5868 21.0629 13.4698 20.9459C13.3528 20.8289 13.194 20.7631 13.0285 20.7631H11.3485Z" fill="#FF5963"/>
</svg>
