<svg width="18" height="20" viewBox="0 0 18 20" fill="none" xmlns="http://www.w3.org/2000/svg">
<path d="M13.1158 0C13.2057 0.0212956 13.2935 0.0425908 13.3813 0.0596273C14.1079 0.200087 14.7613 0.591504 15.2259 1.16472C15.6905 1.73794 15.9364 2.45606 15.9203 3.1922C15.931 4.74039 15.9203 6.29071 15.9203 7.83889C15.9387 8.01573 15.8968 8.19358 15.8013 8.34384C15.7057 8.49409 15.5622 8.60802 15.3937 8.66729C15.2424 8.71704 15.0795 8.71985 14.9265 8.67535C14.7736 8.63085 14.6378 8.54115 14.5373 8.41813C14.4059 8.23679 14.3437 8.01486 14.3618 7.79204C14.3618 6.28219 14.3618 4.77233 14.3618 3.26248C14.3772 3.00175 14.3292 2.74116 14.2219 2.5028C14.1146 2.26443 13.9511 2.05532 13.7452 1.89317C13.4639 1.67431 13.1154 1.5585 12.7583 1.56522C9.55847 1.56522 6.35863 1.56522 3.15878 1.56522C2.75041 1.55547 2.35471 1.70669 2.05796 1.98593C1.7612 2.26517 1.58744 2.64977 1.57456 3.05591C1.57456 3.1198 1.57456 3.18582 1.57456 3.2497C1.57456 7.74732 1.57456 12.2457 1.57456 16.7447C1.56016 17.0054 1.60906 17.2657 1.71712 17.5037C1.82518 17.7417 1.98923 17.9503 2.19541 18.1119C2.49034 18.3343 2.85308 18.4493 3.22301 18.4377C4.0665 18.4377 4.90999 18.4377 5.75562 18.4377C5.9239 18.4322 6.0893 18.482 6.22628 18.5794C6.36326 18.6768 6.46419 18.8163 6.51348 18.9765C6.56782 19.1246 6.57236 19.2863 6.52642 19.4372C6.48048 19.5881 6.38654 19.7201 6.25872 19.8134C6.1041 19.9187 5.92344 19.9798 5.73636 19.9901C4.88002 20.0072 4.0087 19.9901 3.14594 19.9901C2.72491 19.9872 2.30869 19.9007 1.92161 19.7359C1.53454 19.5711 1.18437 19.3312 0.89157 19.0302C0.598769 18.7293 0.369209 18.3733 0.216307 17.983C0.0634042 17.5928 -0.00977457 17.1762 0.00104668 16.7575C0.0224551 14.1722 0.00104668 11.589 0.00104668 9.00376V3.23267C0.00104668 2.00604 0.512708 1.052 1.57885 0.432299C1.92233 0.268714 2.28077 0.138217 2.64927 0.0425921C2.6985 0.0255556 2.74774 0.0149069 2.79912 0H13.1158Z" fill="#FF5963"/>
<path d="M17.9993 12.9162C18.0084 13.237 17.9511 13.5561 17.831 13.854C17.711 14.1518 17.5307 14.4219 17.3014 14.6475C15.8927 16.0531 14.479 17.4543 13.0604 18.8513C12.918 18.9834 12.7464 19.0804 12.5594 19.1345C11.5746 19.4177 10.5834 19.6861 9.59648 19.9565C9.09766 20.0928 8.6802 19.9075 8.55389 19.4689C8.50783 19.3008 8.50783 19.1236 8.55389 18.9556C8.83934 17.9618 9.1412 16.973 9.45947 15.9892C9.5133 15.8232 9.60571 15.6722 9.72921 15.5483C11.1322 14.1457 12.5394 12.7473 13.9509 11.3531C14.2528 11.0439 14.6346 10.8235 15.0543 10.7163C15.474 10.609 15.9153 10.619 16.3296 10.7452C16.7439 10.8713 17.1152 11.1087 17.4026 11.4313C17.6901 11.7539 17.8824 12.149 17.9586 12.5734C17.9795 12.6867 17.9931 12.8012 17.9993 12.9162ZM10.4571 18.0953C10.9581 17.959 11.4226 17.8355 11.885 17.7013C11.9892 17.6696 12.0845 17.6142 12.1633 17.5395C13.0468 16.6678 13.9274 15.7947 14.8051 14.9201C14.8458 14.8797 14.8844 14.8349 14.91 14.8073L13.7775 13.6786C13.7459 13.7372 13.7078 13.7922 13.6641 13.8426C12.949 14.5581 12.2447 15.2864 11.5061 15.9721C11.081 16.3296 10.7885 16.8184 10.6755 17.3606C10.6305 17.6012 10.5363 17.8142 10.4571 18.0846V18.0953ZM16.0575 13.6616C16.2004 13.5709 16.3108 13.4376 16.3731 13.2809C16.4353 13.1241 16.4463 12.9518 16.4044 12.7884C16.3712 12.6406 16.2937 12.5062 16.1821 12.4031C16.0704 12.3001 15.9299 12.2332 15.7792 12.2113C15.6234 12.1854 15.4633 12.2066 15.3197 12.2723C15.1762 12.338 15.0558 12.4451 14.9743 12.5797L16.0575 13.6616Z" fill="#FF5963"/>
<path d="M7.95174 4.68985C9.28048 4.68985 10.6085 4.68985 11.9358 4.68985C12.1385 4.68192 12.3363 4.75221 12.488 4.88604C12.6397 5.01987 12.7336 5.20686 12.7499 5.40792C12.7662 5.60897 12.7037 5.80851 12.5756 5.96481C12.4474 6.12111 12.2634 6.22206 12.0621 6.24655C12.0108 6.24655 11.9572 6.24655 11.9059 6.24655H3.99547C3.50093 6.24655 3.16696 5.96545 3.13913 5.52889C3.12746 5.41746 3.14028 5.30484 3.1767 5.19883C3.21313 5.09281 3.27228 4.99594 3.35006 4.91492C3.42785 4.8339 3.52241 4.77066 3.6272 4.72959C3.73198 4.68853 3.84449 4.6706 3.95693 4.67707C4.94386 4.67707 5.93292 4.67707 6.91985 4.67707L7.95174 4.68985Z" fill="#FF5963"/>
<path d="M7.93674 9.37607C6.60942 9.37607 5.27996 9.37607 3.95264 9.37607C3.75118 9.38101 3.55552 9.30876 3.40609 9.17426C3.25667 9.03976 3.16492 8.85329 3.1498 8.6534C3.13468 8.45351 3.19735 8.25548 3.32486 8.10025C3.45236 7.94502 3.63496 7.84447 3.83489 7.81937C3.88627 7.81937 3.93979 7.81937 3.99117 7.81937H11.9123C12.0182 7.81185 12.1245 7.82576 12.2249 7.86026C12.3252 7.89477 12.4175 7.94914 12.4961 8.02011C12.5748 8.09108 12.6381 8.17716 12.6824 8.27316C12.7266 8.36917 12.7509 8.4731 12.7536 8.57868C12.7564 8.68426 12.7376 8.7893 12.6984 8.88745C12.6592 8.98561 12.6004 9.07484 12.5256 9.14977C12.4507 9.22469 12.3614 9.28375 12.263 9.32338C12.1646 9.363 12.0591 9.38238 11.953 9.38033C11.1266 9.38033 10.3024 9.38033 9.47814 9.38033L7.93674 9.37607Z" fill="#FF5963"/>
<path d="M6.37279 12.5003C5.56355 12.5003 4.75218 12.5003 3.94294 12.5003C3.73513 12.498 3.53673 12.4137 3.3914 12.266C3.24606 12.1182 3.16568 11.9191 3.16795 11.7124C3.17023 11.5056 3.25496 11.3083 3.40351 11.1637C3.55205 11.0191 3.75226 10.9392 3.96007 10.9415C4.76502 10.9415 5.56784 10.9415 6.37279 10.9415C7.17775 10.9415 7.99341 10.9415 8.80264 10.9415C9.01045 10.9437 9.20885 11.028 9.35419 11.1758C9.49952 11.3235 9.5799 11.5227 9.57763 11.7294C9.57536 11.9361 9.49063 12.1335 9.34208 12.278C9.19353 12.4226 8.99333 12.5025 8.78552 12.5003C7.972 12.5024 7.16918 12.5003 6.37279 12.5003Z" fill="#FF5963"/>
</svg>
